# Blender 3.4.1
# www.blender.org
mtllib creeper.mtl
o CreeperNEW
v 5.665759 8.869583 5.568234
v 2.958365 8.869583 5.568233
v 5.665758 8.958843 11.328866
v 2.958364 8.958843 11.328866
v 2.958365 10.627705 5.540991
v 2.958364 10.716965 11.301626
v -2.858362 8.899504 5.567769
v -5.834621 8.899504 5.567769
v -2.858363 8.988774 11.328395
v -5.834622 8.988774 11.328395
v -5.834621 16.388325 5.451727
v -5.834621 16.477596 11.212356
v -5.822702 24.990662 8.199436
v -5.822702 22.048813 8.245022
v -5.822701 24.946032 5.319122
v -5.822702 22.004183 5.364707
v -8.703362 22.048813 8.245022
v -8.703361 22.004183 5.364707
v -8.703361 24.990662 8.199436
v -2.942041 24.946032 5.319122
v -2.942042 19.185406 5.408385
v -8.703361 19.185406 5.408384
v 8.502434 22.177542 8.243029
v 5.621773 22.177542 8.243029
v 8.502435 22.132912 5.362713
v 5.621774 22.132912 5.362713
v 5.621773 25.057861 8.198397
v 5.621774 25.013231 5.318081
v 8.502435 25.057861 8.198397
v 8.502435 19.252605 5.407345
v 2.741112 19.252605 5.407344
v 2.741113 25.013231 5.318080
v 2.741112 19.185406 5.408385
v -2.942042 19.274666 11.169015
v 2.741112 19.274666 11.169016
v -2.942042 16.388325 5.451727
v -2.942042 16.477596 11.212356
v 2.741112 16.388325 5.451727
v 2.741112 16.477596 11.212357
v 5.665759 16.388325 5.451728
v 5.665759 16.477596 11.212357
v -2.858362 10.627705 5.540990
v -2.858362 10.716965 11.301625
v -8.703362 25.035292 11.079756
v -8.703362 19.274666 11.169014
v -2.942042 25.035292 11.079756
v 2.741112 19.341866 11.167976
v 2.741112 25.102491 11.078716
v 8.502434 19.341866 11.167976
v 8.502434 25.102491 11.078716
v -11.584892 7.616134 5.605350
v 11.460398 7.616133 5.605351
v -11.584892 7.705124 11.348286
v 11.460398 7.705123 11.348288
v 11.460399 7.437373 -5.931122
v -11.584891 7.437374 -5.931124
v 11.460400 7.348073 -11.694231
v -11.584890 7.348074 -11.694235
v -11.584891 30.747641 10.991236
v 11.460399 30.747641 10.991238
v 11.460401 30.390593 -12.051281
v -11.584889 30.390593 -12.051285
v -11.584894 -26.947647 6.140929
v 11.460396 -26.947647 6.140931
v 11.460397 -27.126408 -5.395541
v -11.584893 -27.126408 -5.395543
v -11.584891 -27.304768 -16.905994
v 11.460399 -27.304768 -16.905991
v -11.584893 -29.293510 -5.346748
v -11.584893 -44.408066 -5.112542
v 11.460397 -29.293510 -5.346746
v 11.460397 -44.408066 -5.112540
v -11.584892 -44.586655 -16.638205
v 11.460398 -44.586655 -16.638201
v -11.584894 -29.114990 6.174513
v 11.460396 -29.114990 6.174515
v 11.460396 -44.229538 6.408721
v -11.584894 -44.229538 6.408720
v -11.584895 -44.051018 17.929985
v -11.584895 -26.769117 17.662195
v 11.460395 -44.051018 17.929987
v 11.460395 -26.769117 17.662197
vn -0.0000 0.9999 -0.0155
vn 1.0000 -0.0000 -0.0000
vn -0.0000 -0.9999 0.0155
vn -0.0000 0.0155 0.9999
vn -1.0000 -0.0000 -0.0000
vn -0.0000 -0.0155 -0.9999
s 0
f 1//1 2//1 3//1
f 3//1 2//1 4//1
f 2//2 5//2 4//2
f 4//2 5//2 6//2
f 7//1 8//1 9//1
f 9//1 8//1 10//1
f 8//2 11//2 10//2
f 10//2 11//2 12//2
f 13//2 14//2 15//2
f 15//2 14//2 16//2
f 14//3 17//3 16//3
f 16//3 17//3 18//3
f 19//4 17//4 13//4
f 13//4 17//4 14//4
f 15//4 16//4 20//4
f 20//4 16//4 21//4
f 21//4 16//4 22//4
f 22//4 16//4 18//4
f 23//3 24//3 25//3
f 25//3 24//3 26//3
f 24//5 27//5 26//5
f 26//5 27//5 28//5
f 23//4 29//4 24//4
f 24//4 29//4 27//4
f 25//4 26//4 30//4
f 30//4 26//4 31//4
f 31//4 26//4 32//4
f 32//4 26//4 28//4
f 21//3 33//3 34//3
f 34//3 33//3 35//3
f 36//2 21//2 37//2
f 37//2 21//2 34//2
f 33//5 38//5 35//5
f 35//5 38//5 39//5
f 37//3 12//3 36//3
f 36//3 12//3 11//3
f 38//3 40//3 39//3
f 39//3 40//3 41//3
f 5//1 42//1 6//1
f 6//1 42//1 43//1
f 3//5 41//5 1//5
f 1//5 41//5 40//5
f 2//4 1//4 5//4
f 5//4 1//4 40//4
f 38//4 5//4 40//4
f 38//4 42//4 5//4
f 38//4 36//4 42//4
f 38//4 21//4 36//4
f 38//4 33//4 21//4
f 36//4 11//4 42//4
f 42//4 11//4 8//4
f 7//4 42//4 8//4
f 9//5 43//5 7//5
f 7//5 43//5 42//5
f 19//2 44//2 17//2
f 17//2 44//2 45//2
f 22//2 17//2 45//2
f 22//2 18//2 17//2
f 21//1 22//1 34//1
f 34//1 22//1 45//1
f 20//5 21//5 46//5
f 46//5 21//5 34//5
f 15//3 20//3 13//3
f 13//3 20//3 46//3
f 44//3 13//3 46//3
f 44//3 19//3 13//3
f 31//2 32//2 47//2
f 47//2 32//2 48//2
f 30//1 31//1 49//1
f 49//1 31//1 47//1
f 25//5 30//5 23//5
f 23//5 30//5 49//5
f 50//5 23//5 49//5
f 50//5 29//5 23//5
f 29//3 50//3 27//3
f 27//3 50//3 48//3
f 32//3 27//3 48//3
f 32//3 28//3 27//3
f 51//3 52//3 53//3
f 53//3 52//3 54//3
f 55//3 56//3 57//3
f 57//3 56//3 58//3
f 39//4 41//4 35//4
f 35//4 41//4 47//4
f 34//4 47//4 46//4
f 34//4 35//4 47//4
f 3//4 54//4 41//4
f 3//4 4//4 54//4
f 54//4 4//4 53//4
f 53//4 4//4 9//4
f 10//4 53//4 9//4
f 10//4 12//4 53//4
f 53//4 12//4 45//4
f 59//4 45//4 44//4
f 46//4 59//4 44//4
f 46//4 48//4 59//4
f 46//4 47//4 48//4
f 4//4 6//4 9//4
f 9//4 6//4 43//4
f 37//4 34//4 12//4
f 12//4 34//4 45//4
f 53//4 45//4 59//4
f 59//4 48//4 60//4
f 60//4 48//4 50//4
f 49//4 60//4 50//4
f 49//4 54//4 60//4
f 49//4 41//4 54//4
f 49//4 47//4 41//4
f 61//6 57//6 62//6
f 62//6 57//6 58//6
f 61//1 62//1 60//1
f 60//1 62//1 59//1
f 51//4 63//4 52//4
f 52//4 63//4 64//4
f 55//6 65//6 56//6
f 56//6 65//6 66//6
f 66//1 65//1 67//1
f 67//1 65//1 68//1
f 69//4 70//4 71//4
f 71//4 70//4 72//4
f 73//6 67//6 74//6
f 74//6 67//6 68//6
f 72//3 70//3 74//3
f 74//3 70//3 73//3
f 69//3 71//3 75//3
f 75//3 71//3 76//3
f 76//6 77//6 75//6
f 75//6 77//6 78//6
f 78//5 79//5 75//5
f 75//5 79//5 80//5
f 63//5 75//5 80//5
f 63//5 69//5 75//5
f 63//5 66//5 69//5
f 63//5 51//5 66//5
f 66//5 51//5 56//5
f 56//5 51//5 59//5
f 62//5 56//5 59//5
f 62//5 58//5 56//5
f 51//5 53//5 59//5
f 66//5 67//5 69//5
f 69//5 67//5 73//5
f 70//5 69//5 73//5
f 81//4 82//4 79//4
f 79//4 82//4 80//4
f 77//2 76//2 81//2
f 81//2 76//2 82//2
f 82//2 76//2 64//2
f 64//2 76//2 71//2
f 65//2 71//2 68//2
f 65//2 64//2 71//2
f 65//2 55//2 64//2
f 64//2 55//2 52//2
f 52//2 55//2 60//2
f 54//2 52//2 60//2
f 72//2 74//2 71//2
f 71//2 74//2 68//2
f 57//2 61//2 55//2
f 55//2 61//2 60//2
f 64//1 63//1 82//1
f 82//1 63//1 80//1
f 78//3 77//3 79//3
f 79//3 77//3 81//3
